<svg width="20" height="20" viewBox="0 0 20 20" fill="none" xmlns="http://www.w3.org/2000/svg">
<path d="M0 3.87036C0 2.65329 0.98663 1.66666 2.2037 1.66666L11.6667 1.66666C16.269 1.66666 20 5.43004 20 10.0324C20 14.5991 16.298 18.3333 11.7313 18.3333H7.03905C5.97713 18.3333 5.11628 17.4725 5.11628 16.4106C5.11628 15.3531 5.97021 14.4941 7.02766 14.4878L12.0864 14.4579C12.7076 14.4542 13.2093 13.9495 13.2093 13.3283C13.2093 12.7044 12.7036 12.1986 12.0797 12.1986H3.7721C2.71036 12.1986 1.84964 11.3379 1.84964 10.2762C1.84964 9.21863 2.70382 8.35967 3.76134 8.35376L9.31684 8.32268C9.92632 8.31928 10.4186 7.82423 10.4186 7.21474C10.4186 6.60482 9.92566 6.1096 9.31574 6.10679L2.19357 6.07403C0.980466 6.06845 0 5.08347 0 3.87036Z" fill="url(#paint0_linear_6288_9500)"/>
<defs>
<linearGradient id="paint0_linear_6288_9500" x1="10" y1="1.66666" x2="10" y2="18.3333" gradientUnits="userSpaceOnUse">
<stop stop-color="#FFD601"/>
<stop offset="1" stop-color="#FFB901"/>
</linearGradient>
</defs>
</svg>
