<svg width="314" height="314" viewBox="0 0 314 314" fill="none" xmlns="http://www.w3.org/2000/svg">
<g opacity="0.15">
<mask id="mask0_6256_9105" style="mask-type:alpha" maskUnits="userSpaceOnUse" x="45" y="45" width="223" height="223">
<circle cx="156.978" cy="156.978" r="111" transform="rotate(-45 156.978 156.978)" fill="#C4C4C4"/>
</mask>
<g mask="url(#mask0_6256_9105)">
<path fill-rule="evenodd" clip-rule="evenodd" d="M156.978 8.04663e-05L0 156.978L1.06066 158.038L158.038 1.06074L156.978 8.04663e-05ZM164.049 7.07115L7.07107 164.049L8.13173 165.11L165.109 8.13181L164.049 7.07115ZM14.1421 171.12L171.12 14.1422L172.18 15.2029L15.2028 172.181L14.1421 171.12ZM178.191 21.2133L21.2132 178.191L22.2739 179.252L179.252 22.2739L178.191 21.2133ZM28.2843 185.262L185.262 28.2844L186.323 29.345L29.3449 186.323L28.2843 185.262ZM192.333 35.3554L35.3553 192.333L36.416 193.394L193.394 36.4161L192.333 35.3554ZM199.404 42.4265L42.4264 199.404L43.4871 200.465L200.465 43.4871L199.404 42.4265ZM248.902 91.924L91.9239 248.902L92.9845 249.962L249.962 92.9846L248.902 91.924ZM141.421 298.399L298.399 141.421L299.46 142.482L142.482 299.46L141.421 298.399ZM84.8528 241.831L241.831 84.8529L242.891 85.9136L85.9135 242.891L84.8528 241.831ZM291.328 134.35L134.35 291.328L135.411 292.389L292.389 135.411L291.328 134.35ZM234.759 77.7818L77.7817 234.76L78.8424 235.82L235.82 78.8425L234.759 77.7818ZM127.279 284.257L284.257 127.279L285.318 128.34L128.34 285.318L127.279 284.257ZM70.7107 227.688L227.688 70.7108L228.749 71.7714L71.7713 228.749L70.7107 227.688ZM277.186 120.208L120.208 277.186L121.269 278.247L278.247 121.269L277.186 120.208ZM220.617 63.6397L63.6396 220.617L64.7003 221.678L221.678 64.7003L220.617 63.6397ZM113.137 270.115L270.115 113.137L271.175 114.198L114.198 271.176L113.137 270.115ZM56.5685 213.546L213.546 56.5686L214.607 57.6293L57.6292 214.607L56.5685 213.546ZM263.044 106.066L106.066 263.044L107.127 264.104L264.104 107.127L263.044 106.066ZM155.563 312.541L312.541 155.564L313.602 156.624L156.624 313.602L155.563 312.541ZM49.4975 206.475L206.475 49.4976L207.536 50.5582L50.5581 207.536L49.4975 206.475ZM255.973 98.995L98.9949 255.973L100.056 257.033L257.033 100.056L255.973 98.995ZM148.492 305.47L305.47 148.493L306.531 149.553L149.553 306.531L148.492 305.47Z" fill="white"/>
</g>
</g>
</svg>
