<svg width="167" height="167" viewBox="0 0 167 167" fill="none" xmlns="http://www.w3.org/2000/svg">
<g opacity="0.2">
<path d="M65.8002 162.937C66.5702 162.167 67.8102 162.167 68.5802 162.937C69.3502 163.707 69.3502 164.947 68.5802 165.717C67.8102 166.487 66.5702 166.487 65.8002 165.717C65.0302 164.947 65.0302 163.707 65.8002 162.937Z" fill="white"/>
<path d="M44.0599 141.198C44.8299 140.428 46.0699 140.428 46.8399 141.198C47.6099 141.968 47.6099 143.208 46.8399 143.978C46.0699 144.748 44.8299 144.748 44.0599 143.978C43.2899 143.208 43.2899 141.968 44.0599 141.198Z" fill="white"/>
<path d="M23.7002 122.807C24.7827 122.807 25.6602 121.93 25.6602 120.847C25.6602 119.765 24.7827 118.887 23.7002 118.887C22.6178 118.887 21.7402 119.765 21.7402 120.847C21.7402 121.93 22.6178 122.807 23.7002 122.807Z" fill="white"/>
<path d="M0.57 97.7174C1.34 96.9474 2.58 96.9474 3.35 97.7174C4.12 98.4874 4.12 99.7274 3.35 100.497C2.58 101.267 1.34 101.267 0.57 100.497C-0.19 99.7274 -0.19 98.4874 0.57 97.7174Z" fill="white"/>
<path d="M85.2298 143.517C85.9998 142.747 87.2398 142.747 88.0098 143.517C88.7798 144.287 88.7798 145.527 88.0098 146.297C87.2398 147.067 85.9998 147.067 85.2298 146.297C84.4598 145.527 84.4598 144.277 85.2298 143.517Z" fill="white"/>
<path d="M63.4802 121.777C64.2502 121.007 65.4902 121.007 66.2602 121.777C67.0302 122.547 67.0302 123.787 66.2602 124.557C65.4902 125.327 64.2502 125.327 63.4802 124.557C62.7202 123.777 62.7202 122.537 63.4802 121.777Z" fill="white"/>
<path d="M43.1299 103.378C44.2124 103.378 45.0899 102.5 45.0899 101.418C45.0899 100.335 44.2124 99.4575 43.1299 99.4575C42.0474 99.4575 41.1699 100.335 41.1699 101.418C41.1699 102.5 42.0474 103.378 43.1299 103.378Z" fill="white"/>
<path d="M21.3897 81.6375C22.4722 81.6375 23.3497 80.76 23.3497 79.6775C23.3497 78.5951 22.4722 77.7175 21.3897 77.7175C20.3072 77.7175 19.4297 78.5951 19.4297 79.6775C19.4297 80.76 20.3072 81.6375 21.3897 81.6375Z" fill="white"/>
<path d="M106.04 127.438C107.123 127.438 108 126.56 108 125.478C108 124.395 107.123 123.518 106.04 123.518C104.958 123.518 104.08 124.395 104.08 125.478C104.08 126.56 104.958 127.438 106.04 127.438Z" fill="white"/>
<path d="M82.9098 102.348C83.6798 101.578 84.9198 101.578 85.6898 102.348C86.4598 103.118 86.4598 104.358 85.6898 105.128C84.9198 105.898 83.6798 105.898 82.9098 105.128C82.1498 104.358 82.1498 103.108 82.9098 102.348Z" fill="white"/>
<path d="M61.1703 80.6075C61.9403 79.8375 63.1803 79.8375 63.9503 80.6075C64.7203 81.3775 64.7203 82.6175 63.9503 83.3875C63.1803 84.1575 61.9403 84.1575 61.1703 83.3875C60.4003 82.6175 60.4003 81.3675 61.1703 80.6075Z" fill="white"/>
<path d="M39.43 58.8675C40.2 58.0975 41.44 58.0975 42.21 58.8675C42.98 59.6375 42.98 60.8775 42.21 61.6475C41.44 62.4175 40.2 62.4175 39.43 61.6475C38.66 60.8775 38.66 59.6275 39.43 58.8675Z" fill="white"/>
<path d="M124.08 104.658C124.85 103.888 126.09 103.888 126.86 104.658C127.63 105.428 127.63 106.668 126.86 107.438C126.09 108.208 124.85 108.208 124.08 107.438C123.31 106.668 123.31 105.428 124.08 104.658Z" fill="white"/>
<path d="M102.34 82.9176C103.11 82.1476 104.35 82.1476 105.12 82.9176C105.89 83.6876 105.89 84.9276 105.12 85.6976C104.35 86.4676 103.11 86.4676 102.34 85.6976C101.57 84.9276 101.57 83.6876 102.34 82.9176Z" fill="white"/>
<path d="M81.9903 64.5274C83.0728 64.5274 83.9503 63.6499 83.9503 62.5674C83.9503 61.4849 83.0728 60.6074 81.9903 60.6074C80.9078 60.6074 80.0303 61.4849 80.0303 62.5674C80.0303 63.6499 80.9078 64.5274 81.9903 64.5274Z" fill="white"/>
<path d="M58.8597 39.4376C59.6297 38.6676 60.8697 38.6676 61.6397 39.4376C62.4097 40.2076 62.4097 41.4476 61.6397 42.2176C60.8697 42.9876 59.6297 42.9876 58.8597 42.2176C58.0897 41.4476 58.0897 40.1976 58.8597 39.4376Z" fill="white"/>
<path d="M143.51 85.2274C144.28 84.4574 145.52 84.4574 146.29 85.2274C147.06 85.9974 147.06 87.2374 146.29 88.0074C145.52 88.7774 144.28 88.7774 143.51 88.0074C142.74 87.2374 142.74 85.9974 143.51 85.2274Z" fill="white"/>
<path d="M121.77 63.4874C122.54 62.7174 123.78 62.7174 124.55 63.4874C125.32 64.2574 125.32 65.4974 124.55 66.2674C123.78 67.0374 122.54 67.0374 121.77 66.2674C121 65.4974 121 64.2574 121.77 63.4874Z" fill="white"/>
<path d="M101.42 45.0975C102.502 45.0975 103.38 44.22 103.38 43.1375C103.38 42.055 102.502 41.1775 101.42 41.1775C100.337 41.1775 99.46 42.055 99.46 43.1375C99.46 44.22 100.337 45.0975 101.42 45.0975Z" fill="white"/>
<path d="M79.67 23.3575C80.7524 23.3575 81.63 22.48 81.63 21.3975C81.63 20.315 80.7524 19.4375 79.67 19.4375C78.5875 19.4375 77.71 20.315 77.71 21.3975C77.71 22.48 78.5875 23.3575 79.67 23.3575Z" fill="white"/>
<path d="M164.32 69.1475C165.403 69.1475 166.28 68.27 166.28 67.1875C166.28 66.1051 165.403 65.2275 164.32 65.2275C163.238 65.2275 162.36 66.1051 162.36 67.1875C162.36 68.27 163.238 69.1475 164.32 69.1475Z" fill="white"/>
<path d="M141.2 44.0575C141.97 43.2875 143.21 43.2875 143.98 44.0575C144.75 44.8275 144.75 46.0675 143.98 46.8375C143.21 47.6075 141.97 47.6075 141.2 46.8375C140.43 46.0675 140.43 44.8275 141.2 44.0575Z" fill="white"/>
<path d="M119.46 22.3175C120.23 21.5475 121.47 21.5475 122.24 22.3175C123.01 23.0875 123.01 24.3275 122.24 25.0975C121.47 25.8675 120.23 25.8675 119.46 25.0975C118.69 24.3275 118.69 23.0875 119.46 22.3175Z" fill="white"/>
<path d="M97.7096 0.5775C98.4796 -0.1925 99.7196 -0.1925 100.49 0.5775C101.26 1.3475 101.26 2.58751 100.49 3.35751C99.7196 4.12751 98.4796 4.12751 97.7096 3.35751C96.9496 2.58751 96.9496 1.3475 97.7096 0.5775Z" fill="white"/>
</g>
</svg>
