<svg width="124" height="95" viewBox="0 0 124 95" fill="none" xmlns="http://www.w3.org/2000/svg">
<g opacity="0.2">
<path d="M105.649 93.7609C99.8238 90.0946 103.977 83.9376 98.1521 80.2713C92.3269 76.605 88.1734 82.762 82.3483 79.0957C76.5231 75.4294 80.6765 69.2724 74.8514 65.6061C69.0262 61.9398 64.8728 68.0968 59.0476 64.4305C53.2224 60.7642 57.3759 54.6072 51.5507 50.9409C45.7255 47.2746 41.5721 53.4316 35.7469 49.7653C29.9217 46.099 34.0752 39.942 28.25 36.2757C22.4249 32.6094 18.2714 38.7664 12.4338 35.0923C6.60865 31.426 10.7621 25.2689 4.92444 21.5948" stroke="white" stroke-miterlimit="10"/>
<path d="M112.561 83.5044C106.736 79.8381 110.889 73.681 105.064 70.0147C99.239 66.3484 95.0856 72.5055 89.2604 68.8391C83.4352 65.1728 87.5887 59.0157 81.7635 55.3494C75.9383 51.6831 71.7849 57.8402 65.9597 54.1739C60.1345 50.5076 64.288 44.3505 58.4628 40.6842C52.6377 37.0178 48.4842 43.1749 42.659 39.5086C36.8339 35.8423 40.9873 29.6852 35.1621 26.0189C29.337 22.3526 25.1835 28.5097 19.3459 24.8355C13.5208 21.1692 17.6742 15.0121 11.8365 11.3379" stroke="white" stroke-miterlimit="10"/>
<path d="M119.475 73.2478C113.65 69.5815 117.803 63.4244 111.978 59.7581C106.153 56.0918 101.999 62.2488 96.174 58.5825C90.3489 54.9162 94.5023 48.7591 88.6772 45.0928C82.852 41.4265 78.6985 47.5836 72.8734 43.9173C67.0482 40.251 71.2017 34.0939 65.3765 30.4276C59.5513 26.7613 55.3979 32.9184 49.5727 29.2521C43.7475 25.5858 47.901 19.4287 42.0758 15.7624C36.2507 12.0961 32.0972 18.2532 26.2596 14.5791C20.4344 10.9127 24.5879 4.75562 18.7502 1.08148" stroke="white" stroke-miterlimit="10"/>
</g>
</svg>
