<svg width="108" height="108" viewBox="0 0 108 108" fill="none" xmlns="http://www.w3.org/2000/svg">
<g opacity="0.2">
<path d="M65.3392 83.0879C66.1092 82.3231 67.3493 82.3231 68.1193 83.0879C68.8893 83.8528 68.8893 85.0846 68.1193 85.8494C67.3493 86.6143 66.1092 86.6143 65.3392 85.8494C64.5692 85.0846 64.5692 83.8528 65.3392 83.0879Z" fill="white"/>
<path d="M44.3392 103.948C45.1092 103.183 46.3493 103.183 47.1193 103.948C47.8893 104.712 47.8893 105.944 47.1193 106.709C46.3493 107.474 45.1092 107.474 44.3392 106.709C43.5692 105.944 43.5692 104.712 44.3392 103.948Z" fill="white"/>
<path d="M44.9913 64.8208C46.0738 64.8208 46.9513 63.9491 46.9513 62.8738C46.9513 61.7986 46.0738 60.9269 44.9913 60.9269C43.9088 60.9269 43.0312 61.7986 43.0312 62.8738C43.0312 63.9491 43.9088 64.8208 44.9913 64.8208Z" fill="white"/>
<path d="M23.9913 85.6804C25.0738 85.6804 25.9513 84.8088 25.9513 83.7335C25.9513 82.6583 25.0738 81.7866 23.9913 81.7866C22.9088 81.7866 22.0312 82.6583 22.0312 83.7335C22.0312 84.8088 22.9088 85.6804 23.9913 85.6804Z" fill="white"/>
<path d="M21.8588 39.8986C22.6288 39.1337 23.8688 39.1337 24.6388 39.8986C25.4088 40.6635 25.4088 41.8952 24.6388 42.6601C23.8688 43.425 22.6288 43.425 21.8588 42.6601C21.0887 41.8952 21.0887 40.6536 21.8588 39.8986Z" fill="white"/>
<path d="M0.858759 60.7582C1.62877 59.9934 2.86879 59.9934 3.6388 60.7582C4.40881 61.5231 4.40881 62.7549 3.6388 63.5197C2.86879 64.2846 1.62877 64.2846 0.858759 63.5197C0.0887471 62.7549 0.0887471 61.5132 0.858759 60.7582Z" fill="white"/>
<path d="M84.7689 63.7876C85.5389 63.0228 86.7789 63.0228 87.549 63.7876C88.319 64.5525 88.319 65.7842 87.549 66.549C86.7789 67.3139 85.5389 67.3139 84.7689 66.549C83.9989 65.7842 83.9989 64.5525 84.7689 63.7876Z" fill="white"/>
<path d="M64.421 45.5206C65.5035 45.5206 66.381 44.649 66.381 43.5737C66.381 42.4985 65.5035 41.6268 64.421 41.6268C63.3385 41.6268 62.4609 42.4985 62.4609 43.5737C62.4609 44.649 63.3385 45.5206 64.421 45.5206Z" fill="white"/>
<path d="M42.671 23.926C43.7535 23.926 44.631 23.0543 44.631 21.9791C44.631 20.9038 43.7535 20.0321 42.671 20.0321C41.5885 20.0321 40.7109 20.9038 40.7109 21.9791C40.7109 23.0543 41.5885 23.926 42.671 23.926Z" fill="white"/>
<path d="M104.199 44.4876C104.969 43.7227 106.209 43.7227 106.979 44.4876C107.749 45.2525 107.749 46.4842 106.979 47.2491C106.209 48.014 104.969 48.014 104.199 47.2491C103.429 46.4842 103.429 45.2525 104.199 44.4876Z" fill="white"/>
<path d="M82.4603 22.8929C83.2303 22.128 84.4704 22.128 85.2404 22.8929C86.0104 23.6577 86.0104 24.8895 85.2404 25.6544C84.4704 26.4192 83.2303 26.4192 82.4603 25.6544C81.6903 24.8895 81.6903 23.6577 82.4603 22.8929Z" fill="white"/>
<path d="M60.7106 1.29816C61.4806 0.533263 62.7206 0.533263 63.4906 1.29816C64.2606 2.06306 64.2606 3.29485 63.4906 4.05975C62.7206 4.82465 61.4806 4.82465 60.7106 4.05975C59.9506 3.29485 59.9506 2.06306 60.7106 1.29816Z" fill="white"/>
</g>
</svg>
