<svg width="167" height="167" viewBox="0 0 167 167" fill="none" xmlns="http://www.w3.org/2000/svg">
<g opacity="0.15">
<mask id="mask0_6256_9106" style="mask-type:alpha" maskUnits="userSpaceOnUse" x="24" y="24" width="119" height="119">
<circle cx="83.4777" cy="83.4778" r="59.0276" transform="rotate(-45 83.4777 83.4778)" fill="#C4C4C4"/>
</mask>
<g mask="url(#mask0_6256_9106)">
<path fill-rule="evenodd" clip-rule="evenodd" d="M87.4777 -142L-69.5 14.9778L-68.4393 16.0384L88.5384 -140.939L87.4777 -142ZM94.5488 -134.929L-62.4289 22.0489L-61.3683 23.1095L95.6094 -133.868L94.5488 -134.929ZM-55.3579 29.1199L101.62 -127.858L102.68 -126.797L-54.2972 30.1806L-55.3579 29.1199ZM108.691 -120.787L-48.2868 36.191L-47.2261 37.2516L109.752 -119.726L108.691 -120.787ZM-41.2157 43.2621L115.762 -113.716L116.823 -112.655L-40.1551 44.3227L-41.2157 43.2621ZM122.833 -106.645L-34.1447 50.3331L-33.084 51.3938L123.894 -105.584L122.833 -106.645ZM129.904 -99.5735L-27.0736 57.4042L-26.0129 58.4648L130.965 -98.5129L129.904 -99.5735ZM179.402 -50.076L22.4239 106.902L23.4845 107.962L180.462 -49.0154L179.402 -50.076ZM71.9214 156.399L228.899 -0.578566L229.96 0.482094L72.982 157.46L71.9214 156.399ZM15.3528 99.8306L172.331 -57.1471L173.391 -56.0864L16.4135 100.891L15.3528 99.8306ZM221.828 -7.64963L64.8503 149.328L65.9109 150.389L222.889 -6.58897L221.828 -7.64963ZM165.259 -64.2182L8.28174 92.7595L9.3424 93.8202L166.32 -63.1575L165.259 -64.2182ZM57.7792 142.257L214.757 -14.7207L215.818 -13.66L58.8399 143.318L57.7792 142.257ZM1.21068 85.6885L158.188 -71.2892L159.249 -70.2286L2.27134 86.7491L1.21068 85.6885ZM207.686 -21.7918L50.7082 135.186L51.7688 136.247L208.747 -20.7311L207.686 -21.7918ZM151.117 -78.3603L-5.86039 78.6174L-4.79973 79.6781L152.178 -77.2997L151.117 -78.3603ZM43.6371 128.115L200.615 -28.8628L201.675 -27.8022L44.6977 129.176L43.6371 128.115ZM-12.9315 71.5463L144.046 -85.4314L145.107 -84.3707L-11.8708 72.607L-12.9315 71.5463ZM193.544 -35.9339L36.566 121.044L37.6267 122.104L194.604 -34.8732L193.544 -35.9339ZM86.0635 170.541L243.041 13.5636L244.102 14.6242L87.1241 171.602L86.0635 170.541ZM-20.0025 64.4753L136.975 -92.5024L138.036 -91.4418L-18.9419 65.5359L-20.0025 64.4753ZM186.473 -43.005L29.4949 113.973L30.5556 115.033L187.533 -41.9443L186.473 -43.005ZM78.9924 163.47L235.97 6.4925L237.031 7.55316L80.0531 164.531L78.9924 163.47Z" fill="white"/>
</g>
</g>
</svg>
